<mxfile host="app.diagrams.net" modified="2023-07-18T12:45:23.816Z" agent="Mozilla/5.0 (X11; Linux x86_64; rv:109.0) Gecko/20100101 Firefox/115.0" etag="C7M4TczaGoLzOKcoYpZ_" version="21.6.2" type="device">
  <diagram id="UPw__8rDb3Ic0QQtVixC" name="Page-1">
    <mxGraphModel dx="1647" dy="930" grid="1" gridSize="10" guides="1" tooltips="1" connect="1" arrows="1" fold="1" page="1" pageScale="1" pageWidth="850" pageHeight="1100" math="0" shadow="0">
      <root>
        <mxCell id="0" />
        <mxCell id="1" parent="0" />
        <mxCell id="XeY2YQRqrP0rmwsMtUYX-1" value="" style="rounded=1;whiteSpace=wrap;html=1;arcSize=3;dashed=1;" parent="1" vertex="1">
          <mxGeometry x="440" y="200" width="260" height="410" as="geometry" />
        </mxCell>
        <mxCell id="XeY2YQRqrP0rmwsMtUYX-2" value="" style="rounded=0;whiteSpace=wrap;html=1;strokeWidth=1;" parent="1" vertex="1">
          <mxGeometry x="480" y="260" width="180" height="160" as="geometry" />
        </mxCell>
        <mxCell id="XeY2YQRqrP0rmwsMtUYX-4" value="project-notifications-service" style="text;html=1;strokeColor=none;fillColor=none;align=center;verticalAlign=middle;whiteSpace=wrap;rounded=0;" parent="1" vertex="1">
          <mxGeometry x="440" y="200" width="160" height="30" as="geometry" />
        </mxCell>
        <mxCell id="XeY2YQRqrP0rmwsMtUYX-8" value="event" style="strokeWidth=1;html=1;shape=mxgraph.flowchart.direct_data;whiteSpace=wrap;" parent="1" vertex="1">
          <mxGeometry x="880" y="247" width="130" height="50" as="geometry" />
        </mxCell>
        <mxCell id="XeY2YQRqrP0rmwsMtUYX-55" style="edgeStyle=orthogonalEdgeStyle;rounded=0;orthogonalLoop=1;jettySize=auto;html=1;entryX=0;entryY=0.5;entryDx=0;entryDy=0;strokeColor=#ed333b;strokeWidth=2;fontSize=15;" parent="1" source="XeY2YQRqrP0rmwsMtUYX-10" target="XeY2YQRqrP0rmwsMtUYX-15" edge="1">
          <mxGeometry relative="1" as="geometry" />
        </mxCell>
        <mxCell id="XeY2YQRqrP0rmwsMtUYX-10" value="&lt;div&gt;project&lt;/div&gt;&lt;div&gt;(various)&lt;br&gt;&lt;/div&gt;" style="strokeWidth=1;html=1;shape=mxgraph.flowchart.direct_data;whiteSpace=wrap;" parent="1" vertex="1">
          <mxGeometry x="110" y="282" width="130" height="50" as="geometry" />
        </mxCell>
        <mxCell id="XeY2YQRqrP0rmwsMtUYX-12" value="Project" style="text;strokeColor=none;fillColor=none;align=left;verticalAlign=middle;spacingLeft=4;spacingRight=4;overflow=hidden;points=[[0,0.5],[1,0.5]];portConstraint=eastwest;rotatable=0;whiteSpace=wrap;html=1;strokeWidth=2;" parent="1" vertex="1">
          <mxGeometry x="480" y="260" width="85" height="30" as="geometry" />
        </mxCell>
        <mxCell id="XeY2YQRqrP0rmwsMtUYX-23" style="edgeStyle=orthogonalEdgeStyle;rounded=0;orthogonalLoop=1;jettySize=auto;html=1;entryX=0;entryY=0.5;entryDx=0;entryDy=0;entryPerimeter=0;fontSize=20;exitX=1;exitY=0.25;exitDx=0;exitDy=0;strokeColor=#ed333b;strokeWidth=2;" parent="1" source="XeY2YQRqrP0rmwsMtUYX-15" target="XeY2YQRqrP0rmwsMtUYX-8" edge="1">
          <mxGeometry relative="1" as="geometry">
            <mxPoint x="640" y="305" as="sourcePoint" />
          </mxGeometry>
        </mxCell>
        <mxCell id="PwNMmbPtDXsZHilvekVR-4" style="edgeStyle=orthogonalEdgeStyle;rounded=0;orthogonalLoop=1;jettySize=auto;html=1;exitX=1;exitY=0.75;exitDx=0;exitDy=0;entryX=0;entryY=0.5;entryDx=0;entryDy=0;entryPerimeter=0;strokeColor=#ed333b;strokeWidth=2;" parent="1" source="XeY2YQRqrP0rmwsMtUYX-15" target="PwNMmbPtDXsZHilvekVR-3" edge="1">
          <mxGeometry relative="1" as="geometry" />
        </mxCell>
        <mxCell id="XeY2YQRqrP0rmwsMtUYX-15" value="Notifications" style="rounded=0;whiteSpace=wrap;html=1;strokeWidth=1;" parent="1" vertex="1">
          <mxGeometry x="500" y="285" width="140" height="45" as="geometry" />
        </mxCell>
        <mxCell id="1sXCX0SKia1eX1p2T-AG-2" style="edgeStyle=orthogonalEdgeStyle;rounded=0;orthogonalLoop=1;jettySize=auto;html=1;entryX=0;entryY=0.5;entryDx=0;entryDy=0;strokeWidth=2;strokeColor=#ed333b;" edge="1" parent="1" source="XeY2YQRqrP0rmwsMtUYX-16" target="1sXCX0SKia1eX1p2T-AG-1">
          <mxGeometry relative="1" as="geometry" />
        </mxCell>
        <mxCell id="XeY2YQRqrP0rmwsMtUYX-16" value="UserState" style="rounded=0;whiteSpace=wrap;html=1;strokeWidth=1;" parent="1" vertex="1">
          <mxGeometry x="480" y="450" width="180" height="50" as="geometry" />
        </mxCell>
        <mxCell id="XeY2YQRqrP0rmwsMtUYX-17" value="EmployeeState" style="rounded=0;whiteSpace=wrap;html=1;strokeWidth=1;" parent="1" vertex="1">
          <mxGeometry x="480" y="530" width="180" height="50" as="geometry" />
        </mxCell>
        <mxCell id="XeY2YQRqrP0rmwsMtUYX-28" value="ProjectState" style="rounded=0;whiteSpace=wrap;html=1;strokeWidth=1;" parent="1" vertex="1">
          <mxGeometry x="500" y="350" width="140" height="40" as="geometry" />
        </mxCell>
        <mxCell id="XeY2YQRqrP0rmwsMtUYX-34" style="edgeStyle=orthogonalEdgeStyle;rounded=0;orthogonalLoop=1;jettySize=auto;html=1;fontSize=20;" parent="1" source="XeY2YQRqrP0rmwsMtUYX-33" target="XeY2YQRqrP0rmwsMtUYX-16" edge="1">
          <mxGeometry relative="1" as="geometry" />
        </mxCell>
        <mxCell id="XeY2YQRqrP0rmwsMtUYX-33" value="&lt;div&gt;user&lt;/div&gt;&lt;div&gt;(User)&lt;br&gt;&lt;/div&gt;" style="strokeWidth=1;html=1;shape=mxgraph.flowchart.direct_data;whiteSpace=wrap;" parent="1" vertex="1">
          <mxGeometry x="110" y="450" width="130" height="50" as="geometry" />
        </mxCell>
        <mxCell id="XeY2YQRqrP0rmwsMtUYX-36" style="edgeStyle=orthogonalEdgeStyle;rounded=0;orthogonalLoop=1;jettySize=auto;html=1;entryX=0;entryY=0.5;entryDx=0;entryDy=0;fontSize=20;" parent="1" source="XeY2YQRqrP0rmwsMtUYX-35" target="XeY2YQRqrP0rmwsMtUYX-17" edge="1">
          <mxGeometry relative="1" as="geometry" />
        </mxCell>
        <mxCell id="XeY2YQRqrP0rmwsMtUYX-35" value="&lt;div&gt;company&lt;/div&gt;&lt;div&gt;(Employee)&lt;br&gt;&lt;/div&gt;" style="strokeWidth=1;html=1;shape=mxgraph.flowchart.direct_data;whiteSpace=wrap;" parent="1" vertex="1">
          <mxGeometry x="110" y="530" width="130" height="50" as="geometry" />
        </mxCell>
        <mxCell id="XeY2YQRqrP0rmwsMtUYX-47" value="" style="endArrow=classic;html=1;rounded=0;strokeColor=#000000;strokeWidth=1;fontSize=20;" parent="1" edge="1">
          <mxGeometry width="50" height="50" relative="1" as="geometry">
            <mxPoint x="760" y="590" as="sourcePoint" />
            <mxPoint x="860" y="590" as="targetPoint" />
          </mxGeometry>
        </mxCell>
        <mxCell id="XeY2YQRqrP0rmwsMtUYX-48" value="" style="endArrow=classic;html=1;rounded=0;strokeColor=#ed333b;strokeWidth=2;fontSize=20;" parent="1" edge="1">
          <mxGeometry width="50" height="50" relative="1" as="geometry">
            <mxPoint x="760" y="560" as="sourcePoint" />
            <mxPoint x="860" y="560" as="targetPoint" />
          </mxGeometry>
        </mxCell>
        <mxCell id="XeY2YQRqrP0rmwsMtUYX-49" value="Query" style="text;html=1;strokeColor=none;fillColor=none;align=left;verticalAlign=middle;whiteSpace=wrap;rounded=0;strokeWidth=1;fontSize=15;" parent="1" vertex="1">
          <mxGeometry x="880" y="580" width="130" height="30" as="geometry" />
        </mxCell>
        <mxCell id="XeY2YQRqrP0rmwsMtUYX-50" value="Command" style="text;html=1;strokeColor=none;fillColor=none;align=left;verticalAlign=middle;whiteSpace=wrap;rounded=0;strokeWidth=1;fontSize=15;" parent="1" vertex="1">
          <mxGeometry x="880" y="550" width="130" height="30" as="geometry" />
        </mxCell>
        <mxCell id="PwNMmbPtDXsZHilvekVR-2" value="" style="endArrow=classic;html=1;rounded=0;strokeColor=#000000;strokeWidth=1;fontSize=20;exitX=1;exitY=0.5;exitDx=0;exitDy=0;exitPerimeter=0;entryX=0;entryY=0.5;entryDx=0;entryDy=0;edgeStyle=orthogonalEdgeStyle;" parent="1" source="XeY2YQRqrP0rmwsMtUYX-10" target="XeY2YQRqrP0rmwsMtUYX-28" edge="1">
          <mxGeometry width="50" height="50" relative="1" as="geometry">
            <mxPoint x="250" y="410" as="sourcePoint" />
            <mxPoint x="350" y="410" as="targetPoint" />
          </mxGeometry>
        </mxCell>
        <mxCell id="PwNMmbPtDXsZHilvekVR-3" value="&lt;div&gt;event-mobile&lt;/div&gt;&lt;div&gt;command&lt;/div&gt;" style="strokeWidth=1;html=1;shape=mxgraph.flowchart.direct_data;whiteSpace=wrap;" parent="1" vertex="1">
          <mxGeometry x="880" y="317" width="130" height="50" as="geometry" />
        </mxCell>
        <mxCell id="PwNMmbPtDXsZHilvekVR-5" value="&lt;div align=&quot;left&quot;&gt;new Notification&lt;/div&gt;" style="text;html=1;strokeColor=none;fillColor=none;align=left;verticalAlign=middle;whiteSpace=wrap;rounded=0;" parent="1" vertex="1">
          <mxGeometry x="760" y="247" width="130" height="30" as="geometry" />
        </mxCell>
        <mxCell id="PwNMmbPtDXsZHilvekVR-6" value="&lt;div align=&quot;left&quot;&gt;push notification&lt;/div&gt;" style="text;html=1;strokeColor=none;fillColor=none;align=left;verticalAlign=middle;whiteSpace=wrap;rounded=0;" parent="1" vertex="1">
          <mxGeometry x="760" y="337" width="130" height="30" as="geometry" />
        </mxCell>
        <mxCell id="1sXCX0SKia1eX1p2T-AG-1" value="&lt;div&gt;&amp;lt;&amp;lt;External&amp;gt;&amp;gt;&lt;/div&gt;&lt;div&gt;Slack API&lt;br&gt;&lt;/div&gt;" style="rounded=0;whiteSpace=wrap;html=1;" vertex="1" parent="1">
          <mxGeometry x="890" y="445" width="120" height="60" as="geometry" />
        </mxCell>
        <mxCell id="1sXCX0SKia1eX1p2T-AG-3" value="notify Admin on User sign-up" style="text;html=1;strokeColor=none;fillColor=none;align=left;verticalAlign=middle;whiteSpace=wrap;rounded=0;" vertex="1" parent="1">
          <mxGeometry x="710" y="475" width="160" height="30" as="geometry" />
        </mxCell>
      </root>
    </mxGraphModel>
  </diagram>
</mxfile>
